<svg width="91" height="64" viewBox="0 0 91 64" fill="none" xmlns="http://www.w3.org/2000/svg">
<path d="M39.8339 1.27874C41.7246 3.46336 43.5505 5.61303 45.4697 7.87267C45.9522 7.21917 46.4774 6.48748 47.0239 5.77261C47.8319 4.7157 48.6215 3.64158 49.4784 2.62619C52.0142 -0.378817 55.8327 -0.903371 58.9045 1.56393C60.3601 2.73312 61.6236 4.25186 62.67 5.82025C66.2564 11.1957 69.1309 16.9408 70.4237 23.3501C70.7481 24.9584 70.7165 26.7018 70.5186 28.3424C70.2247 30.7788 67.7095 32.338 65.2877 31.8411C62.3842 31.2455 59.7494 30.0412 57.4168 28.2044C56.8247 27.7381 56.4598 27.9438 56.0171 28.3219C54.1522 29.9146 52.0577 31.0804 49.6905 31.6957C44.0657 33.1578 38.9489 32.1452 34.455 28.3527C33.8764 27.8644 33.5341 27.8151 32.9127 28.2872C30.7015 29.9669 28.2986 31.2768 25.5409 31.8052C22.4975 32.3882 20.0808 30.3713 19.9158 27.1863C19.7556 24.0933 20.6023 21.2068 21.625 18.3712C23.5184 13.1219 26.1144 8.2428 29.48 3.80335C30.9231 1.89983 32.7078 0.537814 35.1501 0.135204C36.8833 -0.150499 38.347 0.37435 39.8339 1.27874ZM61.3402 9.5193C60.2031 7.94265 59.1657 6.27838 57.905 4.81062C56.1681 2.7884 53.486 2.75927 51.961 4.65594C50.5498 6.41095 49.2527 8.25957 47.8628 10.0327C47.3324 10.7093 47.4145 11.2544 47.7907 11.9822C48.4944 13.3435 49.1741 14.7386 49.658 16.1899C50.2657 18.0126 50.225 19.8663 48.9472 21.4491C47.5403 23.1918 45.2106 23.5672 43.0257 22.4899C41.3536 21.6654 40.1902 19.2293 40.8052 17.2038C41.3767 15.3212 42.2655 13.5328 43.0803 11.7333C43.3354 11.1698 43.4101 10.7554 43.0118 10.2364C41.6198 8.42235 40.3059 6.54547 38.8792 4.76053C37.5016 3.03691 35.3981 2.79839 33.6195 4.11158C33.0532 4.52975 32.5472 5.06358 32.1072 5.62038C28.1792 10.5917 25.5368 16.2397 23.7165 22.2937C23.3262 23.5918 23.105 24.9744 23.0328 26.3305C22.9346 28.1767 23.715 28.973 25.2319 28.6309C27.6753 28.0797 29.7949 26.8374 31.7313 25.1981C31.4425 24.6267 31.2076 24.1341 30.9488 23.6546C30.0608 22.009 29.7582 20.2415 29.866 18.3883C29.9816 16.4006 31.5354 14.5949 33.2515 14.4441C35.8031 14.2198 37.7344 15.4466 38.2407 17.6567C38.8202 20.1865 38.0163 22.4022 36.5893 24.4242C36.0663 25.1652 35.9885 25.6522 36.7814 26.2717C41.7091 30.1216 48.7615 30.1086 53.6885 26.231C54.3576 25.7044 54.5036 25.2703 53.9955 24.5357C52.9925 23.0858 52.3211 21.4861 52.1596 19.697C51.9937 17.859 52.4087 16.2385 54.0781 15.2639C55.6966 14.319 57.4234 14.3305 59.0052 15.331C60.5967 16.3377 61.0735 17.9211 60.8981 19.7799C60.7333 21.5271 60.1534 23.1015 59.2905 24.6058C59.1333 24.8797 59.1022 25.5136 59.2725 25.6507C61.1786 27.1851 63.292 28.3403 65.7427 28.6504C67.0624 28.8173 67.4698 28.3411 67.5732 26.9565C67.7218 24.9659 67.2873 23.0715 66.6952 21.2012C65.4064 17.1303 63.5769 13.3115 61.3402 9.5193ZM46.6335 16.8357C46.2613 15.9661 45.8891 15.0965 45.5168 14.2269C45.3745 14.2421 45.2322 14.2573 45.0899 14.2725C44.6603 15.481 44.1542 16.6687 43.8254 17.9047C43.566 18.8798 44.38 19.8718 45.3278 19.9535C46.2824 20.0359 46.825 19.4158 46.8129 18.216C46.8088 17.8094 46.7363 17.4036 46.6335 16.8357ZM57.5753 20.691C57.6392 20.0839 57.7633 19.4758 57.7519 18.8702C57.7376 18.1073 57.1588 17.7571 56.5219 17.8192C56.1107 17.8594 55.4502 18.2271 55.3931 18.54C55.1187 20.0429 55.6455 21.3648 56.71 22.8382C57.0578 22.0073 57.2987 21.4318 57.5753 20.691ZM32.9388 18.7545C32.9856 20.074 33.1362 21.36 34.0429 22.5045C34.8717 21.3958 35.2681 20.2767 35.2336 18.9918C35.2138 18.2532 34.9601 17.7024 34.2092 17.5672C33.4622 17.4327 33.0906 17.8829 32.9388 18.7545Z" fill="#8293F2"/>
<path d="M11.71 53.9233C11.9258 53.752 12.1443 53.5467 12.2461 53.2933C13.8402 49.3223 15.4392 45.353 16.9861 41.3631C17.3162 40.5115 17.73 40.1126 18.6909 40.1799C20.0409 40.2744 21.4027 40.2248 22.7586 40.1948C23.3872 40.1809 23.6768 40.3579 23.6751 41.0596C23.6576 48.3049 23.6597 55.5502 23.6719 62.7956C23.673 63.4677 23.3961 63.7164 22.7578 63.7044C21.639 63.6835 20.5182 63.6643 19.4009 63.7107C18.6002 63.744 18.3299 63.4285 18.3368 62.6273C18.366 59.2624 18.349 55.8972 18.349 52.532C18.349 52.2075 18.349 51.883 18.349 51.5585C18.2935 51.5476 18.2381 51.5366 18.1826 51.5257C17.0774 54.3854 15.9723 57.2451 14.867 60.1048C14.8053 60.2646 14.7443 60.4247 14.6809 60.5837C13.5873 63.3279 13.4919 63.4086 10.5365 63.0211C10.1943 62.9762 9.77624 62.5056 9.62624 62.1356C8.30172 58.8685 7.03035 55.5793 5.74145 52.2973C5.6595 52.0886 5.56244 51.886 5.30055 51.7255C5.30055 54.0067 5.30058 56.288 5.30054 58.5693C5.30052 59.9085 5.27598 61.2483 5.30921 62.5866C5.33015 63.4295 5.00158 63.7557 4.16024 63.7126C3.07778 63.6571 1.99008 63.681 0.905387 63.7052C0.256539 63.7197 -0.00081437 63.4547 0.000283544 62.7905C0.0122657 55.5452 0.0119815 48.2998 4.01921e-06 41.0545C-0.000992937 40.4513 0.183245 40.1833 0.815014 40.1949C2.37451 40.2235 3.93583 40.2372 5.49447 40.1905C6.29943 40.1664 6.41743 40.7555 6.62761 41.2796C8.30941 45.4733 9.98249 49.6706 11.71 53.9233Z" fill="#8192F2"/>
<path d="M61.0244 47.4794C62.2957 49.4648 63.5238 51.3899 64.8964 53.5414C64.9381 53.0114 64.9788 52.7332 64.9791 52.4548C64.9834 48.782 65.0063 45.1089 64.9651 41.4365C64.9546 40.5063 65.2176 40.1264 66.1776 40.1861C67.3259 40.2576 68.483 40.234 69.6341 40.1918C70.3529 40.1654 70.6173 40.4918 70.6099 41.1638C70.6034 41.7472 70.6098 42.3308 70.6098 42.9143C70.6099 49.3332 70.6104 55.7521 70.6095 62.1709C70.6092 63.6855 70.5946 63.7116 69.1645 63.696C67.9155 63.6824 66.4567 64.0277 65.477 63.491C64.4978 62.9547 63.9746 61.5365 63.2927 60.4776C61.4242 57.5761 59.5783 54.6597 57.7207 51.7511C57.4849 51.3819 57.2326 51.0234 56.8631 50.4745C56.8332 50.9549 56.8008 51.2352 56.8005 51.5156C56.7971 55.1541 56.7701 58.7929 56.8166 62.4308C56.8294 63.4275 56.5144 63.7849 55.5264 63.7175C54.4127 63.6415 53.2893 63.6742 52.1716 63.7091C51.4438 63.7318 51.1301 63.4712 51.1318 62.7003C51.1476 55.5263 51.1459 48.3522 51.1338 41.1782C51.1327 40.4868 51.3669 40.1727 52.0823 40.194C53.234 40.2284 54.3931 40.1355 55.5371 40.2365C55.9912 40.2765 56.5727 40.5803 56.8235 40.9524C58.2549 43.0765 59.6041 45.2575 61.0244 47.4794Z" fill="#8293F2"/>
<path d="M89.5438 58.3393C90.5061 58.2304 90.8817 58.5701 90.8264 59.4958C90.763 60.556 90.8667 61.6279 90.7753 62.6839C90.7496 62.9807 90.2948 63.4785 90.0341 63.4802C84.6453 63.5165 79.2562 63.4947 73.8671 63.4804C73.8075 63.4802 73.7481 63.4272 73.6055 63.3594C73.5916 63.068 73.562 62.734 73.5619 62.4C73.5592 55.4323 73.559 48.4646 73.5605 41.4969C73.5608 40.0286 73.5726 40.0197 75.047 40.0196C79.8946 40.0192 84.7423 40.0425 89.5895 40.0002C90.5705 39.9916 90.9305 40.298 90.8505 41.2942C90.7766 42.2148 90.788 43.1495 90.8485 44.0721C90.904 44.9191 90.6198 45.205 89.7637 45.1925C86.6795 45.1476 83.5943 45.1735 80.5095 45.177C80.1786 45.1774 79.8477 45.2068 79.4559 45.2256C79.4559 46.5036 79.4559 47.7199 79.4559 49.0877C81.2623 49.0877 83.0453 49.0878 84.8283 49.0876C86.7639 49.0875 86.7639 49.0874 86.7639 51.0221C86.7639 51.7773 86.7236 52.5352 86.7746 53.2868C86.8303 54.1092 86.4663 54.389 85.7034 54.3797C84.0087 54.359 82.3135 54.3735 80.6186 54.3736C80.254 54.3736 79.8893 54.3736 79.4597 54.3736C79.4597 55.7334 79.4597 56.9795 79.4597 58.3393C82.8222 58.3393 86.1348 58.3393 89.5438 58.3393Z" fill="#8293F2"/>
<path d="M30.1261 46.6252C29.0779 44.8549 28.069 43.1483 27.063 41.4399C26.4958 40.4769 26.6225 40.2177 27.6894 40.2069C28.9772 40.1939 30.2691 40.1468 31.5508 40.237C31.9602 40.2658 32.4914 40.5888 32.7137 40.9409C34.2092 43.3098 35.6359 45.7232 37.087 48.1208C37.1883 48.2881 37.3069 48.4445 37.505 48.7341C38.83 46.5044 40.214 44.4341 41.323 42.2224C42.1206 40.6316 43.1041 39.8784 44.8755 40.1842C45.5671 40.3037 46.2957 40.2012 47.0074 40.2043C48.2475 40.2098 48.3762 40.4177 47.763 41.4747C46.2363 44.1063 44.7014 46.7331 43.168 49.3608C42.7028 50.158 42.2852 50.9906 41.7525 51.7389C40.6163 53.335 40.1771 55.0567 40.3254 57.0344C40.4661 58.911 40.3317 60.8075 40.3671 62.6942C40.3815 63.4591 40.0965 63.7341 39.3528 63.71C38.1339 63.6704 36.9116 63.6655 35.6931 63.7114C34.9078 63.741 34.606 63.4685 34.6189 62.6484C34.6571 60.2125 34.6677 57.7747 34.609 55.3396C34.5934 54.6912 34.412 53.9802 34.098 53.4174C32.8319 51.1489 31.4841 48.9272 30.1261 46.6252Z" fill="#8192F2"/>
</svg>
